<svg width="71" height="42" viewBox="0 0 71 42" fill="none" xmlns="http://www.w3.org/2000/svg">
<rect width="71" height="42" rx="6" fill="#F7F8FF"/>
<path d="M13.7614 28V13.4545H15.5227V19.9318H23.2784V13.4545H25.0398V28H23.2784V21.4943H15.5227V28H13.7614ZM32.9126 28.2273C31.8615 28.2273 30.9548 27.9953 30.1925 27.5312C29.4349 27.0625 28.8501 26.4091 28.4382 25.571C28.031 24.7282 27.8274 23.7481 27.8274 22.6307C27.8274 21.5133 28.031 20.5284 28.4382 19.6761C28.8501 18.8191 29.4231 18.1515 30.157 17.6733C30.8956 17.1903 31.7573 16.9489 32.7422 16.9489C33.3104 16.9489 33.8714 17.0436 34.4254 17.233C34.9794 17.4223 35.4837 17.7301 35.9382 18.1562C36.3928 18.5777 36.755 19.1364 37.0249 19.8324C37.2947 20.5284 37.4297 21.3854 37.4297 22.4034V23.1136H29.0206V21.6648H35.7251C35.7251 21.0492 35.602 20.5 35.3558 20.017C35.1143 19.5341 34.7687 19.1529 34.3189 18.8736C33.8738 18.5942 33.3482 18.4545 32.7422 18.4545C32.0746 18.4545 31.4969 18.6203 31.0092 18.9517C30.5263 19.2784 30.1546 19.7045 29.8942 20.2301C29.6338 20.7557 29.5036 21.3191 29.5036 21.9205V22.8864C29.5036 23.7102 29.6456 24.4086 29.9297 24.9815C30.2185 25.5497 30.6186 25.983 31.13 26.2812C31.6413 26.5748 32.2356 26.7216 32.9126 26.7216C33.353 26.7216 33.7507 26.66 34.1058 26.5369C34.4657 26.4091 34.7758 26.2197 35.0362 25.9688C35.2966 25.7131 35.4979 25.3958 35.6399 25.017L37.2592 25.4716C37.0888 26.0208 36.8023 26.5038 36.3999 26.9205C35.9974 27.3324 35.5002 27.6544 34.9084 27.8864C34.3165 28.1136 33.6513 28.2273 32.9126 28.2273ZM41.6555 13.4545V28H39.9794V13.4545H41.6555ZM46.4016 13.4545V28H44.7255V13.4545H46.4016ZM53.9034 28.2273C52.9186 28.2273 52.0545 27.9929 51.3111 27.5241C50.5724 27.0554 49.9948 26.3996 49.5781 25.5568C49.1662 24.714 48.9602 23.7292 48.9602 22.6023C48.9602 21.4659 49.1662 20.474 49.5781 19.6264C49.9948 18.7789 50.5724 18.1207 51.3111 17.652C52.0545 17.1832 52.9186 16.9489 53.9034 16.9489C54.8883 16.9489 55.75 17.1832 56.4886 17.652C57.232 18.1207 57.8097 18.7789 58.2216 19.6264C58.6383 20.474 58.8466 21.4659 58.8466 22.6023C58.8466 23.7292 58.6383 24.714 58.2216 25.5568C57.8097 26.3996 57.232 27.0554 56.4886 27.5241C55.75 27.9929 54.8883 28.2273 53.9034 28.2273ZM53.9034 26.7216C54.6515 26.7216 55.267 26.5298 55.75 26.1463C56.233 25.7628 56.5904 25.2585 56.8224 24.6335C57.0545 24.0085 57.1705 23.3314 57.1705 22.6023C57.1705 21.8731 57.0545 21.1937 56.8224 20.5639C56.5904 19.9342 56.233 19.4252 55.75 19.0369C55.267 18.6487 54.6515 18.4545 53.9034 18.4545C53.1553 18.4545 52.5398 18.6487 52.0568 19.0369C51.5739 19.4252 51.2164 19.9342 50.9844 20.5639C50.7524 21.1937 50.6364 21.8731 50.6364 22.6023C50.6364 23.3314 50.7524 24.0085 50.9844 24.6335C51.2164 25.2585 51.5739 25.7628 52.0568 26.1463C52.5398 26.5298 53.1553 26.7216 53.9034 26.7216Z" fill="black"/>
</svg>
