<svg width="61" height="43" viewBox="0 0 61 43" fill="none" xmlns="http://www.w3.org/2000/svg">
<rect width="61" height="43" rx="7" fill="#0042DA"/>
<path d="M21.7614 29V14.4545H23.5227V20.9318H31.2784V14.4545H33.0398V29H31.2784V22.4943H23.5227V29H21.7614ZM36.3388 29V18.0909H38.0149V29H36.3388ZM37.1911 16.2727C36.8643 16.2727 36.5826 16.1615 36.3459 15.9389C36.1139 15.7164 35.9979 15.4489 35.9979 15.1364C35.9979 14.8239 36.1139 14.5563 36.3459 14.3338C36.5826 14.1113 36.8643 14 37.1911 14C37.5178 14 37.7971 14.1113 38.0291 14.3338C38.2659 14.5563 38.3842 14.8239 38.3842 15.1364C38.3842 15.4489 38.2659 15.7164 38.0291 15.9389C37.7971 16.1615 37.5178 16.2727 37.1911 16.2727Z" fill="white"/>
</svg>
